<svg width="84" height="84" viewBox="0 0 84 84" fill="none" xmlns="http://www.w3.org/2000/svg">
<path d="M56.665 7H27.335C14.595 7 7 14.595 7 27.335V56.63C7 69.405 14.595 77 27.335 77H56.63C69.37 77 76.965 69.405 76.965 56.665V27.335C77 14.595 69.405 7 56.665 7ZM63 44.625H44.625V63C44.625 64.435 43.435 65.625 42 65.625C40.565 65.625 39.375 64.435 39.375 63V44.625H21C19.565 44.625 18.375 43.435 18.375 42C18.375 40.565 19.565 39.375 21 39.375H39.375V21C39.375 19.565 40.565 18.375 42 18.375C43.435 18.375 44.625 19.565 44.625 21V39.375H63C64.435 39.375 65.625 40.565 65.625 42C65.625 43.435 64.435 44.625 63 44.625Z" fill="#292D32"/>
</svg>
