<svg width="40" height="40" viewBox="0 0 40 40" fill="none" xmlns="http://www.w3.org/2000/svg">
<path d="M4.30002 31.6833L4.26669 31.7166C3.81669 30.7333 3.53335 29.6166 3.41669 28.3833C3.53335 29.6 3.85002 30.7 4.30002 31.6833Z" fill="#546FFF" />
<path d="M15 17.3C17.1907 17.3 18.9667 15.5241 18.9667 13.3334C18.9667 11.1426 17.1907 9.3667 15 9.3667C12.8093 9.3667 11.0333 11.1426 11.0333 13.3334C11.0333 15.5241 12.8093 17.3 15 17.3Z" fill="#546FFF"/>
<path d="M26.9833 3.33337H13.0166C6.94998 3.33337 3.33331 6.95004 3.33331 13.0167V26.9834C3.33331 28.8 3.64998 30.3834 4.26665 31.7167C5.69998 34.8834 8.76665 36.6667 13.0166 36.6667H26.9833C33.05 36.6667 36.6666 33.05 36.6666 26.9834V23.1667V13.0167C36.6666 6.95004 33.05 3.33337 26.9833 3.33337ZM33.95 20.8334C32.65 19.7167 30.55 19.7167 29.25 20.8334L22.3166 26.7834C21.0166 27.9 18.9166 27.9 17.6166 26.7834L17.05 26.3167C15.8666 25.2834 13.9833 25.1834 12.65 26.0834L6.41665 30.2667C6.04998 29.3334 5.83331 28.25 5.83331 26.9834V13.0167C5.83331 8.31671 8.31665 5.83337 13.0166 5.83337H26.9833C31.6833 5.83337 34.1666 8.31671 34.1666 13.0167V21.0167L33.95 20.8334Z" fill="#546FFF"/>
</svg>
