<svg width="40" height="40" viewBox="0 0 40 40" fill="none" xmlns="http://www.w3.org/2000/svg">
<path d="M26.9833 3.33325H13.0166C6.94992 3.33325 3.33325 6.94992 3.33325 13.0166V26.9666C3.33325 33.0499 6.94992 36.6666 13.0166 36.6666H26.9666C33.0333 36.6666 36.6499 33.0499 36.6499 26.9833V13.0166C36.6666 6.94992 33.0499 3.33325 26.9833 3.33325ZM19.1666 28.7499C19.1666 29.3499 18.5666 29.7499 18.0166 29.5166C15.9999 28.6499 13.3666 27.8499 11.5333 27.6166L11.2166 27.5833C10.1999 27.4499 9.36658 26.4999 9.36658 25.4666V12.6333C9.36658 11.3499 10.3999 10.3999 11.6666 10.4999C13.7499 10.6666 16.8333 11.6666 18.7666 12.7666C19.0333 12.9166 19.1666 13.1999 19.1666 13.4833V28.7499ZM30.6332 25.4499C30.6332 26.4833 29.7999 27.4333 28.7833 27.5666L28.4333 27.5999C26.6166 27.8499 23.9999 28.6333 21.9833 29.4833C21.4333 29.7166 20.8333 29.3166 20.8333 28.7166V13.4666C20.8333 13.1666 20.9833 12.8833 21.2499 12.7333C23.1833 11.6499 26.1999 10.6833 28.2499 10.4999H28.3166C29.5999 10.4999 30.6332 11.5333 30.6332 12.8166V25.4499Z" fill="#546FFF"/>
</svg>
